<svg height="512pt" viewBox="0 -1 512.10588 512" width="512pt" xmlns="http://www.w3.org/2000/svg"><path d="m301.761719 448.558594c.894531 5.96875 4.523437 11.175781 9.8125 14.078125 5.289062 2.90625 11.628906 3.175781 17.144531.726562l81.621094-36.054687c4.042968-1.78125 6.054687-6.351563 4.640625-10.539063l-40.957031-121.691406c-6.554688-19.199219-26.09375-30.777344-46.082032-27.308594l-12.800781 2.296875c-21.921875 3.824219-36.734375 24.519532-33.277344 46.507813zm20.070312-.8125c-.648437.304687-1.402343.273437-2.023437-.085938-.644532-.339844-1.085938-.976562-1.175782-1.703125l-19.953124-131.875c-.410157-2.839843-.3125-5.730469.292968-8.535156l14.429688 11.402344c6.96875 5.433593 12.167968 12.816406 14.933594 21.214843l31.273437 92.941407zm-3.71875-160.816406 12.796875-2.296876c1.375-.246093 2.769532-.367187 4.167969-.367187 10.277344.027344 19.410156 6.566406 22.746094 16.289063l38.496093 114.347656-21.050781 9.292968-30.765625-91.417968c-3.8125-11.554688-10.96875-21.71875-20.5625-29.199219l-15.644531-12.375c2.90625-2.148437 6.261719-3.609375 9.816406-4.273437zm0 0"/><path d="m21.878906 80.003906 127.425782 37.546875c1.722656.511719 3.324218 1.367188 4.703124 2.515625l44.945313 37.445313 7.246094 6.058593 58.722656 305.230469c2.96875 15.515625 12.851563 28.832031 26.847656 36.160157 13.996094 7.324218 30.570313 7.863281 45.011719 1.460937l81.878906-36.171875c7.976563 9.449219 21.136719 12.675781 32.582032 7.988281l43.1875-17.714843c14.542968-5.960938 21.5-22.578126 15.546874-37.121094l-78.652343-191.992188 5.835937-6.742187c10.886719-12.609375 9.515625-31.648438-3.0625-42.570313l-89.992187-77.96875c-6.058594-5.246094-13.953125-7.867187-21.941407-7.289062-7.992187.578125-15.425781 4.308594-20.667968 10.367187l-14.554688 16.835938-32.710937-27.253907h-.050781l-60.585938-49.28125c-3.105469-2.53125-6.6875-4.414062-10.53125-5.539062l-138.035156-40.683594c-15.984375-4.695312-32.753906 4.445313-37.46875 20.425782l-6.109375 20.746093c-2.28125 7.6875-1.4062502 15.964844 2.425781 23.011719 3.832031 7.042969 10.308594 12.273438 18.003906 14.535156zm272.492188 61.574219 20.039062-23.175781c2.277344-2.632813 5.507813-4.253906 8.984375-4.507813 3.472657-.25 6.90625.890625 9.539063 3.167969l89.992187 77.9375c5.46875 4.746094 6.0625 13.019531 1.332031 18.5l-9.265624 10.714844c-2.109376 2.433594-2.671876 5.847656-1.453126 8.824218l80.648438 196.789063c2.382812 5.816406-.402344 12.464844-6.21875 14.847656l-43.203125 17.707031c-2.796875 1.144532-5.933594 1.132813-8.722656-.035156-2.785157-1.167968-4.992188-3.398437-6.136719-6.195312-.871094-2.132813-2.566406-3.824219-4.707031-4.6875-2.136719-.863282-4.53125-.828125-6.640625.105468l-88.671875 39.175782c-9.6875 4.28125-20.796875 3.910156-30.175781-1.003906-9.382813-4.914063-16.011719-13.835938-18.011719-24.238282l-59.296875-308.214844c-.375-1.933593-1.40625-3.679687-2.917969-4.941406l-2.679687-2.234375 32.691406-35.054687 32.972656 27.460937c3.570312 2.96875 8.863281 2.535157 11.902344-.972656zm-276.554688-94.273437 6.09375-20.761719c.980469-3.34375 3.253906-6.15625 6.3125-7.824219 3.058594-1.664062 6.652344-2.046875 9.992188-1.058594l137.949218 40.609375c1.671876.492188 3.226563 1.308594 4.574219 2.40625l53.554688 43.519531-32.613281 34.988282-38.75-32.300782c-3.164063-2.644531-6.835938-4.609374-10.792969-5.769531l-127.445313-37.519531c-6.949218-2.050781-10.917968-9.339844-8.875-16.289062zm0 0"/><path d="m59.75 293.335938c15.949219.359374 31.351562-5.816407 42.632812-17.097657s17.460938-26.683593 17.097657-42.636719c0-27.203124-33.058594-76.328124-46.839844-92.226562-3.328125-3.585938-8-5.621094-12.890625-5.621094-4.894531 0-9.566406 2.035156-12.894531 5.621094-13.78125 15.898438-46.839844 65.023438-46.839844 92.226562-.359375 15.953126 5.816406 31.355469 17.097656 42.636719s26.683594 17.457031 42.636719 17.097657zm0-140.800782c15.050781 17.359375 42.664062 61.3125 42.664062 81.066406.394532 11.433594-3.972656 22.515626-12.0625 30.605469-8.085937 8.089844-19.171874 12.457031-30.601562 12.0625-11.433594.394531-22.515625-3.972656-30.605469-12.0625-8.089843-8.089843-12.457031-19.171875-12.0625-30.605469 0-19.746093 27.621094-63.699218 42.667969-81.066406zm0 0"/><path d="m244.664062 159.199219c-2.195312.5625-4.082031 1.972656-5.238281 3.921875-1.15625 1.953125-1.488281 4.285156-.921875 6.480468l4.265625 16.710938c.96875 3.773438 4.367188 6.414062 8.261719 6.417969.714844.003906 1.425781-.085938 2.117188-.265625 4.566406-1.164063 7.324218-5.8125 6.160156-10.378906l-4.265625-16.714844c-.558594-2.195313-1.964844-4.078125-3.910157-5.234375-1.945312-1.15625-4.273437-1.496094-6.46875-.9375zm0 0"/><path d="m251.96875 214.234375 12.09375 51.199219c.910156 3.847656 4.347656 6.570312 8.300781 6.570312.664063.003906 1.320313-.074218 1.964844-.230468 4.578125-1.078126 7.421875-5.660157 6.355469-10.242188l-12.089844-51.199219c-.703125-2.96875-2.933594-5.339843-5.855469-6.214843-2.921875-.878907-6.089843-.128907-8.3125 1.960937-2.21875 2.09375-3.15625 5.210937-2.457031 8.179687zm0 0"/></svg>