<?xml version="1.0" encoding="utf-8"?>
<!-- Generator: Adobe Illustrator 25.0.0, SVG Export Plug-In . SVG Version: 6.00 Build 0)  -->
<svg version="1.1" id="Icon" xmlns="http://www.w3.org/2000/svg" xmlns:xlink="http://www.w3.org/1999/xlink" x="0px" y="0px"
	 viewBox="0 0 202.6 202.6" style="enable-background:new 0 0 202.6 202.6;" xml:space="preserve">
<style type="text/css">
	.st0{fill:#00BBFF;}
	.st1{fill:#191919;}
</style>
<g>
	<path class="st0" d="M123.8,122.3H96.3c0,0-24.6,0-27.5,0l0,0c-2.7,0-5.7,0.3-7.6,2.3c-1.5,1.7-1.8,4.1-1.8,7.3
		c0,8.2,3,17.8,11.8,17.8c5.3,0,25.1,0,25.1,0h25.1c8.8,0,11.8-9.5,11.8-17.8C133.2,125.5,131.7,122.3,123.8,122.3z M121.4,145.7
		H96.3c0,0-8.8,0-16.2,0c-3.8,0-7.1,0-8.8,0c-5.7,0-7.9-7.4-7.9-13.9c0-1.8,0.2-3.9,0.8-4.7c0.6-0.6,2-0.9,4.5-0.9l0,0
		c2.9,0,27.5,0,27.5,0h27.5c5,0,5.4,0.8,5.4,5.7C129.3,138.3,127.1,145.7,121.4,145.7z"/>
	<path class="st1" d="M40.1,96.5c3.8,0.5,8.8,0.9,14,1.4c8.3,0.8,24.8,1.8,42.3,1.8s34-1.2,42.3-1.8c5.3-0.5,10.3-0.9,14-1.4
		c6.2-0.8,6.5-0.9,6.9-2c0.3-0.8,1.5-3.2-6.3-16.8c-1.2-2.3-7.7-13.3-11.5-15.4c-5.7-3.5-36.1-3.8-45.3-3.8
		c-9.2,0-39.6,0.3-45.3,3.8l0,0C47.5,64.6,41,75.6,39.8,77.8c-7.9,13.6-6.6,15.9-6.3,16.8C33.6,95.6,33.9,95.7,40.1,96.5z M53,65.7
		L53,65.7c3.2-1.8,21-3.2,43.4-3.2s40.2,1.4,43.4,3.2c3.8,2.3,14.5,21,16,26.4c-6.2,0.9-32.3,3.6-59.4,3.6S43.1,93,37,92.1
		C38.5,86.8,49.2,68.1,53,65.7z"/>
	<path d="M123.1,154.8H69.4c-1.5,0-2.9,0.3-3.8,0.8c-1.4,0.8-2.1,2-2.1,3.3c0,1.8,0.5,3.6,1.1,5c1.1,2,2.7,3,4.8,3h53.8
		c2.1,0,3.8-1.1,4.8-3c0.8-1.4,1.1-3,1.1-5C129.1,156.8,127.6,154.8,123.1,154.8z M124.6,161.9c-0.5,0.8-0.9,0.9-1.4,0.9H69.4
		c-0.5,0-0.9-0.2-1.4-0.9c-0.3-0.8-0.6-1.8-0.6-2.9c0.3-0.2,0.9-0.3,2-0.3h53.6c1.2,0,1.8,0.2,2,0.3
		C125.2,160.2,124.9,161.1,124.6,161.9z"/>
	<path d="M161.3,110.1c-4.4,0.3-12.8,2.9-21.8,17.1c0,0.2-0.2,0.2-0.2,0.3l-1.2,2.7c-0.9,2.3-0.9,4.4,0.2,6c0.9,1.4,2.4,2.1,4.4,2.1
		h3.6c20.8,0,26.4-11.8,26.7-16.3c0.3-3.5-0.9-6.6-2.3-8.3C168.7,111.3,165.1,109.9,161.3,110.1z M167.6,116.3
		c0.6,0.8,1.5,3,1.4,5.4c0,0.2-1.5,12.7-22.8,12.7h-3.6c-0.5,0-0.9-0.2-1.1-0.5c-0.3-0.3-0.3-1.2,0.2-2.3l1.1-2.6
		c7.9-12.5,15.1-14.8,18.6-15.1C164.1,113.9,166.4,114.8,167.6,116.3z"/>
	<path d="M53.3,127.5c0-0.2-0.2-0.2-0.2-0.3c-8.9-14.2-17.4-16.8-21.8-17.1c-3.9-0.3-7.4,1.1-9.5,3.6c-1.2,1.5-2.4,4.8-2.3,8.3
		c0.3,4.5,5.7,16.3,26.7,16.3h3.6c1.8,0,3.5-0.8,4.4-2.1c1.1-1.7,1.1-3.8,0.2-6L53.3,127.5z M51,134.1c-0.2,0.3-0.6,0.5-1.1,0.5
		h-3.5c-21.3,0-22.8-12.5-22.8-12.7c-0.2-2.4,0.8-4.7,1.4-5.4c1.2-1.4,3.2-2.3,5.6-2.3c0.2,0,0.5,0,0.6,0
		c3.6,0.2,10.7,2.4,18.6,15.1l1.1,2.6C51.3,132.9,51.3,133.7,51,134.1z"/>
	<path class="st1" d="M178.8,100L178.8,100c5.9,0,11.9-3.2,11.9-9.2c0-3.5-0.8-5.9-2.4-7.4c-2.1-2.1-5.1-2-7.9-1.8
		c-0.6,0-1.2,0-1.8,0c-2.6,0-4.8,0.6-6.6,1.8c-2,1.2-4.1,2-6.2,2.3c-4.5-10.9-15.1-27.8-22.5-31.6c-6-3-37.6-3.3-47.1-3.3
		S55.1,51,49,54c-7.3,3.8-17.7,20.7-22.2,31.6c-2.1-0.2-4.2-1.1-6.2-2.3c-1.8-1.2-4.1-1.8-6.6-1.8c-0.6,0-1.2,0-1.8,0
		c-2.7-0.2-5.7-0.3-7.9,1.8c-1.7,1.5-2.4,3.9-2.4,7.4c0,6,6,9.2,11.9,9.2l0,0H14l5.6-0.5c-5,7.4-10.6,15.7-11.5,21.9
		c-1.1,7.4-2.3,29.3,0.8,39.7v21.8c0,3.2,2.6,5.7,5.7,5.7h16.8c3.2,0,5.7-2.6,5.7-5.7v-8.3c20.4,0,98,0,118.4,0v8.3
		c0,3.2,2.6,5.7,5.7,5.7H178c3.2,0,5.7-2.6,5.7-5.7v-21.8c3-10.4,1.8-32.3,0.8-39.7c-0.9-6.2-6.5-14.5-11.5-21.9l5.6,0.5
		C178.6,100,178.6,100,178.8,100z M31.4,184.6H14.6c-0.9,0-1.8-0.8-1.8-1.8v-15.3c5.1,5.1,13.1,6.6,20.2,6.9v8.3
		C33.2,183.8,32.4,184.6,31.4,184.6z M178,184.6h-16.8c-0.9,0-1.8-0.8-1.8-1.8v-8.3c7.1-0.3,15.3-1.8,20.2-6.9v15.3
		C179.7,183.8,179,184.6,178,184.6z M167.5,98.3c0.6,1.1,1.4,2,2.1,3c4.7,6.8,10.3,15.3,11,20.5c1.2,8.6,2,29.3-0.8,38.2
		c-2.4,6.9-10,10.4-22.4,10.4l0,0c-17.2,0-105.1,0-122.4,0l0,0l0,0l0,0c-12.4,0-19.9-3.5-22.4-10.4c-2.7-9.1-2-29.8-0.8-38.2
		c0.8-5.3,6.5-13.7,11-20.5c0.8-1.1,1.4-2.1,2.1-3c0.5-0.6,0.5-1.5,0-2.1c-0.5-0.6-1.1-1.1-1.8-0.9L13.8,96c-3.2,0-8-1.5-8-5.3
		c0-2.3,0.5-3.8,1.2-4.5c0.9-0.9,2.9-0.9,5-0.8c0.6,0,1.4,0,2,0c1.8,0,3.3,0.5,4.5,1.2c2.9,2,6.3,3,9.7,3c0.8,0,1.5-0.5,1.8-1.2
		c4.2-11.3,15-27.8,21-30.8c3.9-2,26.3-2.9,45.3-3c19,0,41.4,1.1,45.3,3c6.2,3,16.8,19.5,21.1,30.8c0.3,0.8,1.1,1.2,1.8,1.2
		c3.3,0,6.6-1.1,9.7-3c1.2-0.8,2.7-1.2,4.5-1.2c0.6,0,1.4,0,2,0c2.1-0.2,3.9-0.2,5,0.8c0.8,0.8,1.2,2.3,1.2,4.5c0,3.8-4.8,5.1-8,5.3
		l-9.5-0.8c-0.8,0-1.5,0.3-1.8,0.9C167,96.8,167,97.5,167.5,98.3z"/>
</g>
<path class="st0" d="M197.1,97.2l-12.3-12.3c-1.9-1.9-4.7-2.8-7.4-2.4l-8.9-8.9c13.6-17.5,11.2-42.6-5.4-57.2
	c-16.6-14.7-41.8-13.9-57.5,1.8s-16.5,40.8-1.8,57.5c14.7,16.6,39.7,19,57.2,5.4l8.9,8.9c-0.4,2.7,0.5,5.4,2.4,7.4l12.3,12.3
	c3.4,3.4,8.9,3.4,12.3,0C200.5,106.1,200.5,100.6,197.1,97.2z M97,47.8c0-21.2,17.2-38.4,38.4-38.4s38.4,17.2,38.4,38.4
	s-17.2,38.4-38.4,38.4C114.2,86.2,97,69,97,47.8z M163.7,78.7c0.9-0.8,1.7-1.6,2.5-2.5l7.6,7.6c-1,0.6-1.8,1.5-2.5,2.5L163.7,78.7z
	 M194.6,107.1c-2,2-5.4,2-7.4,0l-12.3-12.3c-2-2-2-5.4,0-7.4c2-2,5.4-2,7.4,0l12.3,12.4C196.7,101.7,196.7,105.1,194.6,107.1
	L194.6,107.1z"/>
<path class="st0" d="M135.4,12.9c-19.3,0-34.9,15.6-34.9,34.9c0,19.3,15.6,34.9,34.9,34.9c19.3,0,34.9-15.6,34.9-34.9
	C170.3,28.5,154.7,12.9,135.4,12.9z M135.4,79.3c-17.4,0-31.4-14.1-31.4-31.4c0-17.4,14.1-31.4,31.4-31.4
	c17.4,0,31.4,14.1,31.4,31.4C166.8,65.2,152.7,79.2,135.4,79.3z"/>
</svg>
