<?xml version="1.0" encoding="utf-8"?>
<!-- Generator: Adobe Illustrator 25.0.0, SVG Export Plug-In . SVG Version: 6.00 Build 0)  -->
<svg version="1.1" id="Layer_1" xmlns="http://www.w3.org/2000/svg" xmlns:xlink="http://www.w3.org/1999/xlink" x="0px" y="0px"
	 viewBox="0 0 1000 1000" style="enable-background:new 0 0 1000 1000;" xml:space="preserve">
<style type="text/css">
	.st0{fill:#00BBFF;}
</style>
<g>
	<path d="M982.8,570.9c-1.9-13.9-13.6-37.6-46.7-39.2l-43-2h-0.7h-0.7c-0.2,0-1.6,0.1-4,0.1c-14.8,0-33.9-2.5-42.8-9.4
		c-3.5-2.7-86.9-67.3-205.9-76c-1.1-0.1-27.1-2-62.6-2c-50.9,0-120.4,4-162.6,22.9c-1.9,0.9-45.9,21.3-79.1,44.4l-0.3,0.2
		c-0.4,0.3-39.8,28.9-95.9,36.1c-5.1,0.4-56.6,5.2-109.1,18.6C50.7,584.8,10.6,614.4,10,652.7v0.2l0.1,13.4
		c-0.1,5.9-0.2,71.6,49.1,93.1l2.9,1.3h56.7c16.5,35.7,52.6,60.6,94.5,60.6s78-24.9,94.5-60.6h386.5c16.5,35.7,52.6,60.6,94.5,60.6
		s78-24.9,94.5-60.6H916l0.7-0.1c24.6-2.3,71.6-25.2,73.3-95.6v-17.6C989.9,641.6,989.2,592.4,982.8,570.9z M213.3,791
		c-28.8,0-53.7-16.5-65.9-40.5l-2.8-9.3c-0.1-0.4-8.4-29,2-55.8c7.2-15.2,19.5-27.5,34.6-34.8c8.1-3.1,20.1-6.5,33.6-6.5
		c12.6,0,24.4,3,35.2,8.9c10.4,6,19.3,14.4,25.7,24.6c6.4,12,14.2,34.5,4.7,63.1l-6,18C261.1,778.2,238.7,791,213.3,791z M788.8,791
		c-34.5,0-63.5-23.6-71.6-55.6c-1.9-14.2-3.1-49,24.7-72.6c13-11.1,29.7-17.1,46.9-17.1c23.8,0,45.5,11.5,57.8,30.7l0.7,1
		c0.2,0.2,17.6,24.8,8,64.7l-3.2,13.2C839.2,776.6,815.7,791,788.8,791z M959.8,664.4c-1.4,57.2-38.7,65.1-45.4,66H892
		c0.6-4.3,0.9-8.8,0.9-13.3c0-57.4-46.7-104.1-104.1-104.1s-104.1,46.8-104.1,104.1c0,4.5,0.3,8.9,0.9,13.3H316.5
		c0.6-4.3,0.9-8.8,0.9-13.3c0-20.2-5.8-39.1-15.9-55.1c-4.7-8.5-8.9-13.4-9.4-13.9l-0.5-0.5c-8.3-8.6-17.3-15.6-27-20.9
		c-15.1-8.6-32.6-13.6-51.3-13.6c-15.4,0-30.1,3.4-43.3,9.5c-8.8,3.4-14.2,6.5-14.6,6.8l-0.5,0.3c-17.9,11.6-29,26.9-35.6,42.9
		c-6.4,13.5-10,28.6-10,44.5c0,4.5,0.3,8.9,0.9,13.3H68.7c-29.1-15.4-28.4-63.1-28.3-63.6v-0.3L40.3,653
		c1-41.4,118.1-69.9,201.1-76.9l0.6-0.1c62.8-8,106.3-38.8,110.1-41.6c31-21.6,73.9-41.5,74.2-41.6c37.2-16.7,102.2-20.2,150.1-20.2
		c34.4,0,60.2,1.9,60.4,1.9c109.4,8.1,188.7,69.1,189.5,69.7c17.7,13.7,46,15.8,61.4,15.8c2.2,0,3.8,0,4.7-0.1l42.3,1.9
		c15,0.7,17.8,9.8,18.2,13.4v1.5l0.7,2c4,12.1,5.9,48.6,6.1,68.6L959.8,664.4L959.8,664.4z"/>
</g>
<g>
	<g>
		<path class="st0" d="M315.2,205c-6.4,0-11.7,5.2-11.7,11.7v9.7c-25.1-21.9-57.1-34.1-91.1-34.1C135.5,192.4,73,255.1,73,332.2
			c0,6.4,5.2,11.7,11.7,11.7s11.7-5.2,11.7-11.7c0-64.2,52-116.5,116-116.5c28.1,0,54.4,9.9,75.2,27.8h-10.7
			c-6.4,0-11.7,5.2-11.7,11.7c0,6.4,5.2,11.7,11.7,11.7h38.3c6.4,0,11.7-5.2,11.7-11.7v-38.5C326.8,210.3,321.6,205,315.2,205z"/>
	</g>
</g>
<g>
	<g>
		<path class="st0" d="M341.5,321c-6.4,0-11.7,5.2-11.7,11.7c0,64.2-52,116.5-116,116.5c-27.7,0-53.8-9.7-74.5-27.1h11.2
			c6.4,0,11.7-5.2,11.7-11.7c0-6.4-5.2-11.7-11.7-11.7h-38.3c-0.1,0-0.2,0-0.3,0c-0.4,0-0.9,0.1-1.3,0.1c-0.3,0-0.7,0.1-1,0.2
			c-0.4,0.1-0.8,0.2-1.1,0.4c-0.4,0.1-0.7,0.2-1,0.4c-0.3,0.1-0.6,0.3-0.9,0.5c-0.4,0.2-0.7,0.4-1.1,0.7c-0.1,0.1-0.2,0.1-0.3,0.2
			c-0.2,0.2-0.4,0.3-0.5,0.5c-0.3,0.3-0.6,0.5-0.9,0.8c-0.3,0.3-0.5,0.6-0.7,0.9s-0.4,0.6-0.7,0.9c-0.2,0.3-0.4,0.7-0.5,1
			c-0.2,0.3-0.3,0.7-0.5,1c-0.1,0.4-0.2,0.7-0.3,1.1c-0.1,0.4-0.2,0.7-0.3,1.1c-0.1,0.4-0.1,0.8-0.1,1.2c0,0.2-0.1,0.5-0.1,0.7v38.5
			c0,6.4,5.2,11.7,11.7,11.7c6.4,0,11.7-5.2,11.7-11.7v-9.3c24.9,21.2,56.4,33,89.9,33c76.8,0,139.4-62.7,139.4-139.8
			C353.2,326.3,347.9,321,341.5,321z"/>
	</g>
</g>
</svg>
