<svg id="Capa_1" enable-background="new 0 0 506.165 506.165" height="512" viewBox="0 0 506.165 506.165" width="512" xmlns="http://www.w3.org/2000/svg"><g><path d="m493.144 335.884 11.964-28.911c1.774-4.287 1.294-9.15-1.284-13.007-2.579-3.857-6.888-6.16-11.527-6.16h-45.057c2.115-13.672 3.205-27.552 3.205-41.39v-150.903c0-8.182-5.828-15.261-13.856-16.833l-18.455-3.616c-12.791-2.506-25.61-5.784-38.101-9.741-3.949-1.252-8.164.936-9.415 4.885s.936 8.164 4.885 9.415c13.029 4.128 26.402 7.547 39.748 10.161l18.456 3.616c1.008.197 1.739 1.086 1.739 2.113v150.903c0 13.844-1.135 27.738-3.372 41.39h-17.234c2.381-13.607 3.606-27.485 3.606-41.39v-132.51c0-3.585-2.538-6.669-6.056-7.36l-.408-.08c-52.073-10.201-100.541-30.77-144.058-61.135l-10.15-7.083c-2.568-1.792-5.977-1.8-8.552-.022l-11.655 8.043c-43.113 29.751-91.037 49.943-142.439 60.013l-1.349.264c-3.52.689-6.059 3.774-6.059 7.36v64.466c0 4.142 3.358 7.5 7.5 7.5s7.5-3.358 7.5-7.5v-58.322c51.657-10.761 99.866-31.417 143.367-61.437l7.371-5.087 5.882 4.104c43.662 30.467 92.114 51.446 144.105 62.406v126.379c0 13.919-1.285 27.813-3.822 41.39h-14.882c-8.036 0-14.574 6.538-14.574 14.575v42.026h-30.495c18.337-20.931 28.588-47.806 28.588-76.122 0-10.497-1.414-20.917-4.201-30.971-1.107-3.992-5.245-6.326-9.231-5.224-3.992 1.107-6.33 5.24-5.224 9.231 2.426 8.749 3.656 17.821 3.656 26.963 0 29.358-12.648 56.949-34.792 76.122h-20.097c-4.142 0-7.5 3.358-7.5 7.5s3.358 7.5 7.5 7.5h131.921v64.713c0 .796-.647 1.443-1.443 1.443h-351.532c-.796 0-1.443-.647-1.443-1.443v-64.713h190.535c4.142 0 7.5-3.358 7.5-7.5s-3.358-7.5-7.5-7.5h-79.711c-22.144-19.173-34.792-46.764-34.792-76.122 0-55.514 45.164-100.678 100.678-100.678 14.883 0 29.219 3.177 42.61 9.442 3.752 1.753 8.216.137 9.972-3.615 1.755-3.751.137-8.216-3.615-9.972-15.395-7.203-31.87-10.855-48.966-10.855-63.785 0-115.678 51.893-115.678 115.678 0 28.315 10.25 55.19 28.586 76.122h-29.493v-42.026c0-8.037-6.538-14.575-14.574-14.575h-14.83c-2.572-13.667-3.874-27.659-3.874-41.679v-35.792c0-4.142-3.358-7.5-7.5-7.5s-7.5 3.358-7.5 7.5v35.792c0 14.005 1.243 27.98 3.657 41.679h-17.237c-2.27-13.75-3.421-27.741-3.421-41.679v-150.612c0-1.027.731-1.916 1.74-2.114l19.398-3.8c49.099-9.619 94.874-28.905 136.053-57.322l24.418-16.851c.735-.509 1.722-.504 2.455.006l22.867 15.957c20.929 14.604 43.491 27.025 67.06 36.919 3.82 1.603 8.215-.193 9.818-4.013 1.603-3.819-.193-8.215-4.013-9.818-22.593-9.484-44.221-21.391-64.282-35.39l-22.867-15.956c-5.841-4.075-13.7-4.094-19.559-.05l-24.417 16.85c-39.473 27.24-83.352 45.728-130.417 54.948l-19.398 3.8c-8.029 1.573-13.856 8.652-13.856 16.834v150.614c0 13.93 1.102 27.908 3.246 41.679h-45.099c-4.64 0-8.949 2.303-11.527 6.16-2.578 3.857-3.058 8.72-1.284 13.007l11.964 28.912-11.964 28.911c-1.774 4.287-1.294 9.149 1.284 13.007 2.579 3.857 6.888 6.16 11.527 6.16h47.005v40.158c0 9.067 7.376 16.443 16.443 16.443h61.037c31.531 30.414 70.362 52.884 112.501 65.059l.645.187c.681.197 1.382.295 2.083.295.704 0 1.409-.099 2.092-.298 42.135-12.238 80.943-34.772 112.438-65.243h60.737c9.067 0 16.443-7.376 16.443-16.443v-40.158h47.005c4.64 0 8.949-2.303 11.527-6.16s3.058-8.72 1.284-13.006zm-405.863 8.523 33.717-31.74v31.74zm-71.715 24.556 11.495-27.776c1.415-3.419 1.415-7.185 0-10.604l-11.495-27.777h94.024l-43.545 40.992c-3.287 3.094-5.172 7.458-5.172 11.973v13.192zm274.776 71.601c-11.699 6.612-24.006 12.195-36.838 16.632-12.948-4.42-25.364-10.003-37.166-16.632zm-36.773 50.225c-34.087-10.07-65.841-27.28-92.876-50.225h27.562c19.19 13.583 40.341 24.239 62.918 31.671.762.25 1.554.376 2.345.376.801 0 1.603-.128 2.373-.385 22.399-7.47 43.384-18.123 62.426-31.662h27.461c-26.846 22.863-58.354 40.075-92.209 50.225zm131.598-178.122 33.717 31.74h-33.717zm93.938 28.519 11.495 27.776h-45.307v-13.192c0-4.514-1.885-8.878-5.172-11.973l-43.544-40.992h94.024l-11.495 27.776c-1.416 3.421-1.416 7.186-.001 10.605z"/><path d="m238.019 230.326c-5.001-5.656-13.672-6.189-19.327-1.188l-13.196 11.668c-2.74 2.422-4.373 5.767-4.597 9.417-.225 3.65.986 7.17 3.409 9.91l32.338 36.575c4.202 4.753 10.194 7.553 16.437 7.683.168.004.333.005.5.005 6.094 0 12.01-2.521 16.231-6.918l105.696-110.109c5.264-5.483 5.084-14.227-.399-19.492l-12.573-12.069c-2.656-2.551-6.157-3.919-9.829-3.838-3.681.076-7.113 1.58-9.664 4.236l-88.784 92.491zm115.008-62.857 10.822 10.388-104.855 109.233c-1.407 1.466-3.379 2.307-5.411 2.307l-.183-.002c-2.071-.043-4.082-.999-5.517-2.622l-31.473-35.596 11.237-9.936 20.636 23.34c1.423 1.602 3.467 2.544 5.609 2.585 2.149.054 4.221-.822 5.703-2.366z"/></g></svg>