<svg id="Capa_1" enable-background="new 0 0 512 512" height="512" viewBox="0 0 512 512" width="512" xmlns="http://www.w3.org/2000/svg"><g><path d="m393.741 127.744v-63.487c0-17.511-14.239-31.757-31.741-31.757-17.177 0-31.204 13.699-31.745 30.74-32.371 27.22-92.089 55.086-147.096 58.199v-9.895c0-16.666-13.553-30.226-30.211-30.226h-47.366c-16.658 0-30.21 13.56-30.21 30.226v10.803c-42.377 4.974-75.372 41.117-75.372 84.848 0 43.732 32.995 79.875 75.372 84.849v10.803c0 13.16 8.453 24.376 20.21 28.515v138.138c0 5.522 4.478 10 10 10h23.697c18.565 0 33.669-15.124 33.669-33.714v-114.423c11.757-4.139 20.211-15.355 20.211-28.515v-9.895c55.008 3.113 114.725 30.979 147.096 58.198.541 17.041 14.567 30.74 31.745 30.74 17.502 0 31.741-14.246 31.741-31.757v-63.487c30.634-14.205 50.768-45.287 50.768-79.451s-20.134-65.247-50.768-79.452zm-246.058 144.906h-36.834v-130.909h36.834zm-52.311-161.106c0-5.639 4.58-10.226 10.21-10.226h47.366c5.63 0 10.211 4.587 10.211 10.226v10.197h-67.787zm-75.372 95.651c0-36.092 29.326-65.454 65.372-65.454h5.477v130.909h-5.477c-36.046 0-65.372-29.363-65.372-65.455zm122.948 238.591c0 7.562-6.132 13.714-13.669 13.714h-13.697v-126.428h27.366zm20.211-142.938c0 5.638-4.581 10.225-10.211 10.225h-47.366c-5.63 0-10.21-4.587-10.21-10.225v-10.198h67.787zm210.582 47.286c0 6.482-5.267 11.757-11.741 11.757-6.49 0-11.771-5.274-11.771-11.757v-98.006c0-5.522-4.478-10-10-10s-10 4.478-10 10v73.754c-39.422-28.163-100.626-53.232-157.07-53.232h-5.477v-130.909h5.477c56.443 0 117.649-25.07 157.07-53.233v73.754c0 5.522 4.478 10 10 10s10-4.478 10-10v-98.005c0-6.482 5.28-11.757 11.771-11.757 6.475 0 11.741 5.274 11.741 11.757v70.15 145.576zm20-86.286v-113.305c18.846 12.286 30.768 33.558 30.768 56.652s-11.922 44.367-30.768 56.653z"/><path d="m502 197.195h-20.664c-5.522 0-10 4.478-10 10s4.478 10 10 10h20.664c5.522 0 10-4.478 10-10s-4.478-10-10-10z"/><path d="m470.904 155.073c2.556 0 5.112-.974 7.063-2.922l20.636-20.594c3.909-3.901 3.916-10.232.015-14.142-3.9-3.911-10.233-3.916-14.142-.015l-20.636 20.594c-3.909 3.901-3.916 10.232-.015 14.142 1.954 1.959 4.517 2.937 7.079 2.937z"/><path d="m477.968 262.24c-3.909-3.901-10.24-3.896-14.142.015-3.901 3.909-3.895 10.24.015 14.142l20.636 20.594c1.952 1.948 4.507 2.922 7.063 2.922 2.562 0 5.125-.979 7.078-2.937 3.901-3.909 3.895-10.24-.015-14.142z"/><path d="m340.229 197.195c-5.522 0-10 4.478-10 10v.057c0 5.522 4.478 9.972 10 9.972s10-4.506 10-10.028-4.477-10.001-10-10.001z"/></g></svg>