<?xml version="1.0" encoding="utf-8"?>
<!-- Generator: Adobe Illustrator 25.0.0, SVG Export Plug-In . SVG Version: 6.00 Build 0)  -->
<svg version="1.1" id="Capa_1" xmlns="http://www.w3.org/2000/svg" xmlns:xlink="http://www.w3.org/1999/xlink" x="0px" y="0px"
	 viewBox="0 0 512 512" style="enable-background:new 0 0 512 512;" xml:space="preserve">
<style type="text/css">
	.st0{fill:#00BBFF;}
</style>
<g id="XMLID_1_">
	<g id="XMLID_1410_">
		<g id="XMLID_248_">
			<path id="XMLID_269_" d="M462,0.2H166.2c-27.6,0-50,22.4-50,50v176.6C50.1,239.6,0,298,0,367.9c0,79.4,64.6,143.9,143.9,143.9
				H462c27.6,0,50-22.4,50-50V50.1C512,22.6,489.6,0.2,462,0.2z M20,367.9C20,299.6,75.6,244,143.9,244s123.9,55.6,123.9,123.9
				s-55.6,123.9-123.9,123.9S20,436.3,20,367.9z M184.2,222v-24c0-5.5,4.5-10,10-10h24c5.5,0,10,4.5,10,10v24c0,5.5-4.5,10-10,10
				h-24C188.7,232,184.2,227.5,184.2,222z M492,461.9c0,16.5-13.4,30-30,30H217c23.5-13.9,42.7-34.3,55.2-58.7v4.7
				c0,16.5,13.4,30,30,30h24c16.5,0,30-13.4,30-30v-24c0-16.5-13.4-30-30-30h-24c-5.8,0-11.2,1.7-15.8,4.5c1-6.7,1.5-13.5,1.5-20.5
				c0-4-0.2-8-0.5-11.9c4.4,2.5,9.4,3.9,14.8,3.9h24c16.5,0,30-13.4,30-30v-24c0-16.5-13.4-30-30-30h-24c-15.5,0-28.3,11.9-29.8,27
				c-10.6-20.9-26.2-38.9-45.1-52.4c12.2-3.8,21-15.2,21-28.6v-24c0-16.5-13.4-30-30-30h-24c-16.5,0-30,13.4-30,30v24
				c0,1.2,0.1,2.3,0.2,3.5c-6.7-1-13.6-1.5-20.5-1.5c-2.6,0-5.1,0.1-7.7,0.2V50.1c0-16.5,13.4-30,30-30H462c16.5,0,30,13.4,30,30
				V461.9z M292.1,437.9v-24c0-5.5,4.5-10,10-10h24c5.5,0,10,4.5,10,10v24c0,5.5-4.5,10-10,10h-24
				C296.6,447.9,292.1,443.4,292.1,437.9z M292.1,330v-24c0-5.5,4.5-10,10-10h24c5.5,0,10,4.5,10,10v24c0,5.5-4.5,10-10,10h-24
				C296.6,339.9,292.1,335.5,292.1,330z"/>
			<path id="XMLID_1383_" d="M454,44.1h-94.9c-5.5,0-10,4.5-10,10s4.5,10,10,10H444v60H184.2v-60h84.9c5.5,0,10-4.5,10-10
				s-4.5-10-10-10h-94.9c-5.5,0-10,4.5-10,10v79.9c0,5.5,4.5,10,10,10H454c5.5,0,10-4.5,10-10V54.1C464,48.6,459.6,44.1,454,44.1z"
				/>
			<path id="XMLID_1536_" d="M326.1,168.1h-24c-16.5,0-30,13.4-30,30v24c0,16.5,13.4,30,30,30h24c16.5,0,30-13.4,30-30v-24
				C356.1,181.5,342.7,168.1,326.1,168.1z M336.1,222c0,5.5-4.5,10-10,10h-24c-5.5,0-10-4.5-10-10v-24c0-5.5,4.5-10,10-10h24
				c5.5,0,10,4.5,10,10V222z"/>
			<path id="XMLID_1558_" class="st0" d="M434.1,168.1h-24c-16.5,0-30,13.4-30,30v24c0,16.5,13.4,30,30,30h24c16.5,0,30-13.4,30-30
				v-24C464,181.5,450.6,168.1,434.1,168.1z M444,222c0,5.5-4.5,10-10,10h-24c-5.5,0-10-4.5-10-10v-24c0-5.5,4.5-10,10-10h24
				c5.5,0,10,4.5,10,10V222z"/>
			<path id="XMLID_1685_" d="M434.1,276h-24c-16.5,0-30,13.4-30,30v131.9c0,16.5,13.4,30,30,30h24c16.5,0,30-13.4,30-30V306
				C464,289.4,450.6,276,434.1,276z M444,437.9c0,5.5-4.5,10-10,10h-24c-5.5,0-10-4.5-10-10V306c0-5.5,4.5-10,10-10h24
				c5.5,0,10,4.5,10,10V437.9z"/>
			<path id="XMLID_1686_" d="M314.1,64.1c2.6,0,5.2-1.1,7.1-2.9c1.9-1.9,2.9-4.4,2.9-7.1c0-2.6-1.1-5.2-2.9-7.1
				c-1.9-1.9-4.4-2.9-7.1-2.9s-5.2,1.1-7.1,2.9c-1.9,1.9-2.9,4.4-2.9,7.1c0,2.6,1.1,5.2,2.9,7.1C308.9,63.1,311.5,64.1,314.1,64.1z"
				/>
			<path id="XMLID_1687_" class="st0" d="M176.5,302.2c-5-2.4-10.9-0.3-13.4,4.6l-55,113.2c-2.4,5-0.3,10.9,4.6,13.4
				c1.4,0.7,2.9,1,4.4,1c3.7,0,7.3-2.1,9-5.6l55-113.2C183.5,310.5,181.5,304.6,176.5,302.2L176.5,302.2z"/>
			<path id="XMLID_1690_" class="st0" d="M118.6,296.5c-12.5-12.5-32.8-12.5-45.2,0c-12.5,12.5-12.5,32.8,0,45.2
				c6.2,6.2,14.4,9.4,22.6,9.4c8.2,0,16.4-3.1,22.6-9.4C131.1,329.3,131.1,309,118.6,296.5z M104.5,327.6c-4.7,4.7-12.3,4.7-17,0
				c-4.7-4.7-4.7-12.3,0-17c2.3-2.3,5.4-3.5,8.5-3.5c3.1,0,6.1,1.2,8.5,3.5C109.2,315.4,109.2,323,104.5,327.6z"/>
			<path id="XMLID_1693_" class="st0" d="M170.9,394.1c-12.5,12.5-12.5,32.8,0,45.2c6.2,6.2,14.4,9.4,22.6,9.4
				c8.2,0,16.4-3.1,22.6-9.4c12.5-12.5,12.5-32.8,0-45.2C203.7,381.6,183.4,381.6,170.9,394.1z M202,425.2c-4.7,4.7-12.3,4.7-17,0
				c-4.7-4.7-4.7-12.3,0-17c2.3-2.3,5.4-3.5,8.5-3.5c3.1,0,6.1,1.2,8.5,3.5C206.7,412.9,206.7,420.5,202,425.2L202,425.2z"/>
		</g>
	</g>
</g>
</svg>
